<svg width="27" height="28" viewBox="0 0 27 28" fill="none" xmlns="http://www.w3.org/2000/svg">
<g clip-path="url(#clip0_205_2781)">
<path d="M13.7649 0C13.8073 0.0175124 13.8499 0.0347424 13.8923 0.0528198C14.1649 0.169193 14.3295 0.369739 14.3617 0.668298C14.3713 0.756707 14.3708 0.846529 14.3708 0.935786C14.3711 6.65897 14.3711 12.3824 14.3711 18.1056C14.3711 18.1652 14.3711 18.2251 14.3711 18.2847C14.3922 18.3008 14.4134 18.3166 14.4346 18.3327C14.4609 18.2836 14.4775 18.2248 14.5151 18.187C15.9997 16.699 17.4863 15.2124 18.9729 13.7264C19.2607 13.4385 19.5745 13.3665 19.8912 13.5128C20.3569 13.7278 20.484 14.3249 20.1454 14.7105C20.1205 14.7387 20.0934 14.7647 20.0666 14.7912C18.1213 16.7365 16.1748 18.6807 14.2315 20.628C14.0234 20.8367 13.7946 20.963 13.4906 20.911C13.311 20.8802 13.1726 20.7845 13.0466 20.6582C11.2586 18.8683 9.46927 17.0794 7.68046 15.2903C7.50082 15.1107 7.31976 14.9328 7.14209 14.7514C6.83676 14.4396 6.83139 13.978 7.12741 13.6752C7.42625 13.3699 7.88722 13.3549 8.20216 13.658C8.60862 14.0492 9.00322 14.4529 9.40233 14.8517C10.5132 15.962 11.6236 17.0729 12.7339 18.1839C12.7701 18.22 12.8017 18.261 12.8353 18.2997C12.8492 18.2957 12.863 18.2915 12.8771 18.2875V18.1189C12.8771 12.8423 12.8771 7.56566 12.8771 2.28933C12.8771 1.83796 12.8771 1.38631 12.8771 0.934939C12.8771 0.383297 12.9893 0.210432 13.4833 0C13.5768 0 13.6708 0 13.7649 0Z" fill="black"/>
<path d="M9.13173 3.74926V5.23584C9.07495 5.23584 9.021 5.23584 8.96677 5.23584C7.78638 5.23584 6.60626 5.2333 5.42587 5.2364C4.00284 5.24036 2.8264 6.16117 2.49762 7.53788C2.44254 7.76836 2.42079 8.01184 2.42051 8.24911C2.41627 13.2105 2.42333 18.1722 2.41345 23.1336C2.41062 24.5543 3.39923 25.7938 4.76407 26.0816C4.96942 26.1248 5.18239 26.1528 5.39197 26.1528C10.8796 26.1564 16.3675 26.1573 21.8551 26.1547C23.351 26.1542 24.5966 25.0486 24.8006 23.5519C24.8158 23.4406 24.8254 23.3276 24.8254 23.2152C24.8266 18.188 24.8294 13.1605 24.824 8.1333C24.8226 6.73598 23.7173 5.47734 22.337 5.27595C22.133 5.24629 21.9254 5.23047 21.7195 5.22991C20.577 5.22567 19.4341 5.22793 18.2916 5.22793H18.1173V3.73316C18.1682 3.73316 18.2184 3.73316 18.2684 3.73316C19.4392 3.73316 20.6103 3.73062 21.7811 3.73372C23.9043 3.73909 25.672 5.09489 26.1835 7.12521C26.2654 7.45003 26.3145 7.79237 26.3151 8.12652C26.3233 13.1633 26.3411 18.2001 26.3103 23.2367C26.2993 25.0483 25.3943 26.3705 23.7896 27.2032C23.1841 27.5176 22.5279 27.6515 21.8463 27.6515C16.3632 27.6523 10.8804 27.6535 5.39734 27.6515C3.20179 27.6506 1.32202 26.0505 0.983074 23.8965C0.943812 23.6471 0.924888 23.3917 0.924888 23.1392C0.921781 18.1775 0.929689 13.2161 0.918956 8.25448C0.914719 6.29562 2.17364 4.55991 4.01132 3.95941C4.45647 3.81394 4.91349 3.74163 5.38181 3.74163C6.59497 3.74163 7.80813 3.74163 9.02157 3.74163C9.05405 3.74163 9.08653 3.74587 9.13201 3.74897L9.13173 3.74926Z" fill="black"/>
</g>
<defs>
<clipPath id="clip0_205_2781">
<rect width="25.4089" height="27.6527" fill="white" transform="translate(0.918945)"/>
</clipPath>
</defs>
</svg>
