<svg width="109" height="33" viewBox="0 0 109 33" fill="none" xmlns="http://www.w3.org/2000/svg">
<path fill-rule="evenodd" clip-rule="evenodd" d="M24.0193 21.2065C23.3627 22.6617 23.0485 23.3112 22.2035 24.5973C21.0239 26.3934 19.3618 28.6294 17.3024 28.6481C15.472 28.6651 15.0022 27.4567 12.5185 27.4704C10.0348 27.484 9.51604 28.6694 7.68549 28.6527C5.62586 28.6336 4.05086 26.6142 2.87137 24.819C-0.426631 19.798 -0.771193 13.9054 1.26248 10.7729C2.70815 8.54666 4.98789 7.24347 7.13228 7.24347C9.3152 7.24347 10.6876 8.44083 12.4924 8.44083C14.2431 8.44083 15.3105 7.24155 17.8339 7.24155C19.7417 7.24155 21.763 8.28017 23.2035 10.0772C18.4845 12.6633 19.2509 19.4045 24.0193 21.2065Z"/>
<path fill-rule="evenodd" clip-rule="evenodd" d="M15.9196 5.23562C16.836 4.05868 17.5329 2.39575 17.2801 0.696997C15.7827 0.800127 14.0301 1.75321 13.0069 2.99578C12.0783 4.12405 11.312 5.79712 11.6104 7.42292C13.2455 7.47353 14.9372 6.49681 15.9196 5.23562Z"/>
<path fill-rule="evenodd" clip-rule="evenodd" d="M47.3257 19.5261C46.7812 19.5261 46.2891 19.7055 45.8443 20.0668C45.3999 20.4329 45.1098 20.9069 44.9725 21.4939C44.9054 21.769 44.8702 21.9919 44.8702 22.1706V23.8257C44.8702 24.5502 45.0894 25.1626 45.5355 25.6606C45.978 26.1539 46.5561 26.4044 47.2642 26.4044C48.0944 26.4044 48.7474 26.0858 49.2103 25.443C49.674 24.8014 49.904 23.9559 49.904 22.9025C49.904 21.9363 49.6887 21.1374 49.2515 20.5115C48.7718 19.8596 48.1316 19.5261 47.3257 19.5261ZM87.7634 19.3885C86.879 19.3885 86.2033 19.781 85.742 20.5714C85.3421 21.2217 85.1462 22.0158 85.1462 22.9548C85.1462 23.8701 85.3421 24.6503 85.742 25.3022C86.2145 26.0911 86.8835 26.4837 87.747 26.4837C88.5872 26.4837 89.2518 26.0858 89.7265 25.2777C90.1384 24.6177 90.344 23.8257 90.344 22.9168C90.344 22.0067 90.1466 21.2217 89.7534 20.5714C89.2832 19.781 88.6239 19.3885 87.7634 19.3885ZM58.2543 19.5261C57.7068 19.5261 57.2177 19.7055 56.7724 20.0668C56.3291 20.4329 56.0303 20.9069 55.893 21.4939C55.8249 21.769 55.7854 21.9919 55.7854 22.1706V23.8257C55.7854 24.5502 56.0113 25.1626 56.4566 25.6606C56.899 26.1539 57.4802 26.4044 58.1862 26.4044C59.0228 26.4044 59.6716 26.0858 60.1359 25.443C60.6008 24.8014 60.8348 23.9559 60.8348 22.9025C60.8348 21.9363 60.6153 21.1374 60.1802 20.5115C59.6993 19.8596 59.0579 19.5261 58.2543 19.5261ZM35.419 15.9871H35.3803C35.2414 16.6293 35.0262 17.484 34.7234 18.6315L33.5771 22.2803H37.2796L36.1182 18.6315C35.9926 18.2615 35.7583 17.2715 35.419 15.9871ZM104.524 19.2801C103.802 19.2801 103.216 19.6497 102.764 20.2464C102.396 20.7228 102.175 21.2528 102.109 22.0234H106.712C106.724 21.2528 106.585 20.7453 106.285 20.2652C105.901 19.6536 105.313 19.2801 104.524 19.2801ZM38.9596 27.8028L37.6718 23.8214H33.1893L31.96 27.8028H29.6707L34.1069 14.0607H36.8517L41.3146 27.8028H38.9596ZM50.7774 26.8372C49.9559 27.7067 48.9302 28.1436 47.7111 28.1436C46.3911 28.1436 45.5122 27.674 44.8702 26.729V32.041H42.6871V21.2405C42.6871 20.1773 42.6365 19.1979 42.5805 17.9136H44.5245L44.6465 19.5832H44.6851C45.4257 18.4273 46.5422 17.7898 48.045 17.7898C49.218 17.7898 50.1942 18.2409 50.9832 19.1708C51.765 20.0963 52.1586 21.3159 52.1586 22.8292C52.1586 24.5255 51.6992 25.8528 50.7774 26.8372ZM61.703 26.8372C60.8795 27.7067 59.8521 28.1436 58.6298 28.1436C57.3136 28.1436 56.4275 27.674 55.7854 26.729V32.041H53.6023V21.2405C53.6023 20.1773 53.5618 19.1979 53.5086 17.9136H55.4471L55.575 19.5832H55.6131C56.3548 18.4273 57.4694 17.7898 58.9698 17.7898C60.1436 17.7898 61.1224 18.2409 61.9066 19.1708C62.6929 20.0963 63.0843 21.3159 63.0843 22.8292C63.0843 24.5255 62.6249 25.8528 61.703 26.8372ZM74.4711 26.9143C73.5689 27.7205 72.318 28.1212 70.7133 28.1212C69.2261 28.1212 68.037 27.8332 67.1391 27.2629L67.6524 25.4214C68.6201 25.9918 69.6834 26.2813 70.8403 26.2813C71.6762 26.2813 72.3223 26.0911 72.7867 25.7187C73.2479 25.3449 73.4801 24.844 73.4801 24.2085C73.4801 23.6568 73.2889 23.1857 72.9093 22.8014C72.5238 22.4203 71.8946 22.0681 71.0069 21.7375C68.5947 20.8397 67.3865 19.5231 67.3865 17.7907C67.3865 16.6587 67.8078 15.728 68.662 15.0057C69.5147 14.2844 70.6433 13.9216 72.0498 13.9216C73.3041 13.9216 74.3486 14.1416 75.1821 14.5752L74.6244 16.3769C73.847 15.9552 72.9634 15.7413 71.9778 15.7413C71.1987 15.7413 70.5878 15.9396 70.1483 16.3127C69.781 16.6587 69.5964 17.0746 69.5964 17.564C69.5964 18.1061 69.8081 18.5585 70.2301 18.9183C70.5995 19.2443 71.2682 19.597 72.2332 19.9785C73.4241 20.4524 74.294 21.0152 74.8554 21.6584C75.413 22.2991 75.6941 23.0961 75.6941 24.0494C75.6941 25.224 75.2837 26.1816 74.4711 26.9143ZM82.2387 19.7116H79.9273V24.4629C79.9273 25.6898 80.3079 26.2981 81.1676 26.2981C81.563 26.2981 81.8615 26.2694 82.1231 26.2018L82.1727 27.8759C81.7355 28.0396 81.1571 28.1226 80.4476 28.1226C79.579 28.1226 78.8688 27.8601 78.3791 27.3241C77.8834 26.7946 77.6158 25.8998 77.6158 24.6445V19.7116H76.2033V17.9136H77.6158V16.1519L79.9273 15.4969V17.9136H82.2387V19.7116ZM91.3278 26.6325C90.4113 27.6395 89.1973 28.1436 87.6865 28.1436C86.2242 28.1436 85.058 27.6597 84.1923 26.6907C83.3274 25.7248 82.8961 24.4988 82.8961 23.0272C82.8961 21.4872 83.3416 20.2234 84.235 19.2427C85.1297 18.2565 86.3303 17.7719 87.8442 17.7719C89.3094 17.7719 90.4815 18.2513 91.3681 19.2246C92.2114 20.1606 92.6345 21.3788 92.6345 22.8642C92.6345 24.3969 92.2009 25.6472 91.3278 26.6325ZM99.3179 19.9157C99.1894 19.8759 98.8486 19.8596 98.6049 19.8596C97.8275 19.8596 97.2205 20.1525 96.7966 20.7381C96.4273 21.2576 96.2359 21.9028 96.2359 22.7006V27.8028H94.0529V21.1005C94.0529 19.9612 94.0055 18.9411 93.9666 17.9136H95.8893L95.9715 19.9685H96.0321C96.2631 19.3264 96.6294 18.7424 97.137 18.3499C97.6282 17.9912 98.1796 17.796 98.7522 17.796C98.9548 17.796 99.1894 17.7834 99.3179 17.8102V19.9157ZM108.74 23.5646H102.109C102.135 24.4636 102.456 25.2519 103.072 25.7691C103.63 26.234 104.352 26.4462 105.24 26.4462C106.223 26.4462 107.115 26.2796 107.92 25.961L108.268 27.4927C107.331 27.9055 106.216 28.1027 104.931 28.1027C103.393 28.1027 102.182 27.6505 101.302 26.7436C100.422 25.8369 99.9792 24.6183 99.9792 23.0916C99.9792 21.588 100.39 20.3421 101.207 19.3418C102.07 18.2793 103.23 17.7482 104.687 17.7482C106.123 17.7482 107.207 18.279 107.941 19.3415C108.525 20.1899 108.821 21.2766 108.821 22.5184C108.821 22.9109 108.792 23.3077 108.74 23.5646Z"/>
<path d="M32.3613 9.69824C32.5326 9.72855 32.7947 9.72854 33.0468 9.72854C34.6594 9.73856 35.617 8.85136 35.617 7.12769C35.6272 5.62556 34.7602 4.7688 33.2081 4.7688C32.8149 4.7688 32.5326 4.79898 32.3613 4.8393V9.69824ZM31.1216 3.94208C31.6658 3.85141 32.3613 3.80107 33.0971 3.80107C34.3671 3.80107 35.2441 4.06307 35.869 4.58733C36.5241 5.1216 36.9274 5.92802 36.9274 7.08736C36.9274 8.29705 36.5141 9.20429 35.869 9.78891C35.1936 10.4038 34.1152 10.7163 32.7947 10.7163C32.069 10.7163 31.5247 10.6761 31.1216 10.6256V3.94208Z"/>
<path d="M38.9233 8.19643C38.9233 9.144 39.3871 9.85974 40.143 9.85974C40.8485 9.85974 41.3424 9.16416 41.3424 8.17627C41.3424 7.41005 40.9997 6.53312 40.153 6.53312C39.2762 6.53312 38.9233 7.37987 38.9233 8.19643ZM42.6226 8.14596C42.6226 9.95042 41.3524 10.7568 40.1027 10.7568C38.7117 10.7568 37.6433 9.79925 37.6433 8.22661C37.6433 6.61378 38.7016 5.62575 40.1832 5.62575C41.6448 5.62575 42.6226 6.6541 42.6226 8.14596Z"/>
<path d="M44.3066 5.73673L44.8207 7.96449C44.9316 8.48874 45.0424 9.02302 45.1331 9.55729H45.1533C45.2541 9.02302 45.4154 8.47873 45.5565 7.97464L46.1915 5.73673H47.1994L47.8143 7.91414C47.9654 8.48874 48.0965 9.02302 48.2073 9.55729H48.2275C48.3081 9.02302 48.419 8.48874 48.5501 7.91414L49.0943 5.73673H50.314L48.7717 10.646H47.6228L47.0381 8.65005C46.887 8.13594 46.776 7.67218 46.6652 7.07742H46.6451C46.5443 7.68233 46.4133 8.16625 46.2721 8.65005L45.6472 10.646H44.4881L43.0366 5.73673H44.3066Z"/>
<path d="M51.1104 7.19839C51.1104 6.63394 51.1004 6.16003 51.0701 5.73672H52.1586L52.2191 6.47263H52.2493C52.461 6.08952 52.9952 5.62576 53.8117 5.62576C54.6683 5.62576 55.5553 6.18032 55.5553 7.73267V10.646H54.3156V7.87381C54.3156 7.16821 54.0536 6.63394 53.3782 6.63394C52.8843 6.63394 52.5417 6.98674 52.4106 7.3597C52.3703 7.47067 52.3602 7.62183 52.3602 7.76298V10.646H51.1104V7.19839Z"/>
<path d="M56.877 3.4888H58.1268V10.646H56.877V3.4888Z"/>
<path d="M60.4347 8.19643C60.4347 9.144 60.8984 9.85974 61.6543 9.85974C62.3599 9.85974 62.8538 9.16416 62.8538 8.17627C62.8538 7.41005 62.511 6.53312 61.6644 6.53312C60.7875 6.53312 60.4347 7.37987 60.4347 8.19643ZM64.1338 8.14596C64.1338 9.95042 62.8638 10.7568 61.6139 10.7568C60.2231 10.7568 59.1545 9.79925 59.1545 8.22661C59.1545 6.61378 60.2129 5.62575 61.6946 5.62575C63.1562 5.62575 64.1338 6.6541 64.1338 8.14596Z"/>
<path d="M67.7527 8.24678C66.8758 8.22661 66.0393 8.4181 66.0393 9.16416C66.0393 9.64809 66.3517 9.86976 66.7448 9.86976C67.2387 9.86976 67.6015 9.54714 67.7124 9.19434C67.7425 9.10367 67.7527 9.00285 67.7527 8.9222V8.24678ZM67.914 10.646L67.8333 10.1017H67.8032C67.5007 10.4847 66.9867 10.7568 66.3517 10.7568C65.3638 10.7568 64.8096 10.0412 64.8096 9.29529C64.8096 8.05529 65.9082 7.43034 67.7225 7.44036V7.3597C67.7225 7.03721 67.5914 6.50281 66.7246 6.50281C66.2407 6.50281 65.7368 6.6541 65.4041 6.86576L65.1623 6.05934C65.5251 5.83754 66.1601 5.62575 66.9362 5.62575C68.5087 5.62575 68.9622 6.6238 68.9622 7.69234V9.46662C68.9622 9.91009 68.9824 10.3437 69.0327 10.646H67.914Z"/>
<path d="M73.5587 7.78314C73.5587 7.68232 73.5486 7.56134 73.5284 7.46053C73.4176 6.9766 73.0245 6.58347 72.46 6.58347C71.6637 6.58347 71.2203 7.28907 71.2203 8.20645C71.2203 9.10367 71.6637 9.75893 72.45 9.75893C72.9539 9.75893 73.3974 9.41614 73.5184 8.88187C73.5486 8.77104 73.5587 8.65005 73.5587 8.51905V7.78314ZM74.7984 3.4888V9.26498C74.7984 9.76907 74.8186 10.3134 74.8388 10.646H73.73L73.6797 9.86976H73.6594C73.3672 10.4142 72.7724 10.7568 72.0568 10.7568C70.8877 10.7568 69.9603 9.75893 69.9603 8.24678C69.9503 6.60363 70.9784 5.62576 72.1577 5.62576C72.8329 5.62576 73.3168 5.90818 73.5386 6.271H73.5587V3.4888H74.7984Z"/>
<path d="M79.1836 8.19643C79.1836 9.144 79.6473 9.85974 80.4033 9.85974C81.1088 9.85974 81.6026 9.16416 81.6026 8.17627C81.6026 7.41005 81.26 6.53312 80.4133 6.53312C79.5365 6.53312 79.1836 7.37987 79.1836 8.19643ZM82.8828 8.14596C82.8828 9.95042 81.6128 10.7568 80.3629 10.7568C78.972 10.7568 77.9036 9.79925 77.9036 8.22661C77.9036 6.61378 78.9619 5.62575 80.4436 5.62575C81.9051 5.62575 82.8828 6.6541 82.8828 8.14596Z"/>
<path d="M83.9007 7.19839C83.9007 6.63394 83.8907 6.16003 83.8604 5.73672H84.9489L85.0094 6.47263H85.0397C85.2514 6.08952 85.7856 5.62576 86.602 5.62576C87.4587 5.62576 88.3458 6.18032 88.3458 7.73267V10.646H87.1059V7.87381C87.1059 7.16821 86.8438 6.63394 86.1686 6.63394C85.6747 6.63394 85.332 6.98674 85.2009 7.3597C85.1606 7.47067 85.1505 7.62183 85.1505 7.76298V10.646H83.9007V7.19839Z"/>
<path d="M93.1746 4.33519V5.7365H94.3539V6.6639H93.1746V8.83129C93.1746 9.42606 93.3358 9.73853 93.8097 9.73853C94.0212 9.73853 94.1825 9.70822 94.2934 9.67804L94.3136 10.6256C94.1321 10.6962 93.8097 10.7466 93.4165 10.7466C92.9629 10.7466 92.5799 10.5954 92.3481 10.3434C92.086 10.061 91.965 9.61755 91.965 8.97244V6.6639H91.2595V5.7365H91.965V4.62762L93.1746 4.33519Z"/>
<path d="M95.2915 3.4888H96.5414V6.41214H96.5615C96.7127 6.18032 96.9143 5.9887 97.1764 5.84756C97.4183 5.70641 97.7104 5.62576 98.023 5.62576C98.8596 5.62576 99.7364 6.18032 99.7364 7.75283V10.646H98.4967V7.89398C98.4967 7.17823 98.2348 6.64396 97.5493 6.64396C97.0654 6.64396 96.7228 6.96658 96.5917 7.33954C96.5514 7.44036 96.5414 7.57136 96.5414 7.7125V10.646H95.2915V3.4888Z"/>
<path d="M104.091 7.67195C104.101 7.21833 103.9 6.4724 103.073 6.4724C102.307 6.4724 101.985 7.16798 101.934 7.67195H104.091ZM101.934 8.53885C101.965 9.42606 102.66 9.80916 103.446 9.80916C104.021 9.80916 104.434 9.72851 104.807 9.58724L104.988 10.4441C104.565 10.6156 103.98 10.7466 103.275 10.7466C101.682 10.7466 100.745 9.76884 100.745 8.26671C100.745 6.90586 101.571 5.62552 103.144 5.62552C104.736 5.62552 105.26 6.93603 105.26 8.01473C105.26 8.24654 105.24 8.42802 105.22 8.53885H101.934Z"/>
</svg>
