<svg width="22" height="32" viewBox="0 0 22 32" fill="none" xmlns="http://www.w3.org/2000/svg">
<g clip-path="url(#clip0_205_2794)">
<path d="M2.766 32.0001C2.56262 31.9326 2.34699 31.8892 2.15782 31.7936C1.35811 31.3908 0.959632 30.7249 0.92172 29.836C0.92014 29.7965 0.921325 29.757 0.921325 29.7175C0.921325 21.6595 0.921325 13.6016 0.921325 5.54359C0.921325 4.44176 1.5919 3.5907 2.65187 3.35809C2.82919 3.319 3.01717 3.31742 3.20002 3.31623C4.04791 3.31228 4.89581 3.31031 5.7437 3.31821C5.90957 3.31979 5.95657 3.27003 5.95222 3.10732C5.94156 2.70687 5.94669 2.30563 5.94906 1.90478C5.95459 1.06676 6.56869 0.448316 7.40395 0.447526C9.78335 0.445551 12.1624 0.445551 14.5418 0.447526C15.3269 0.448316 15.9374 1.01621 15.9789 1.79895C16.0022 2.2381 15.9951 2.67922 15.9876 3.11956C15.9848 3.27713 16.0338 3.319 16.1882 3.31821C17.1411 3.31505 18.0945 3.30557 19.047 3.32926C19.9901 3.35296 20.883 4.20796 20.9837 5.14985C21.0058 5.35837 21.0173 5.56926 21.0173 5.77896C21.0188 13.7516 21.0181 21.7239 21.0192 29.6966C21.0192 30.642 20.631 31.3568 19.78 31.7912C19.5916 31.8876 19.3768 31.9318 19.1738 32.0001H2.766ZM2.3691 17.6428C2.3691 21.6587 2.37503 25.6751 2.362 29.691C2.36002 30.2325 2.6649 30.5741 3.24267 30.5733C8.39599 30.567 13.5489 30.5674 18.7022 30.5733C19.2855 30.5741 19.5786 30.2151 19.5778 29.7045C19.5683 21.6722 19.5711 13.6403 19.5711 5.60796C19.5711 5.01202 19.3029 4.74466 18.705 4.74466C13.5454 4.74466 8.38533 4.74822 3.22569 4.73913C2.7273 4.73834 2.36042 5.03216 2.362 5.59493C2.37463 9.61088 2.36871 13.6272 2.36871 17.6432L2.3691 17.6428Z" fill="black"/>
<path d="M11.286 16.2237H15.422C13.2504 19.0135 11.1004 21.7751 8.95046 24.5368C8.93861 24.5309 8.92637 24.5254 8.91452 24.5195C9.49071 22.4824 10.0665 20.4454 10.649 18.3855H6.50708C8.68981 15.5816 10.839 12.8207 12.9881 10.0598C13.0004 10.0649 13.0126 10.0705 13.0249 10.0756C12.4475 12.1177 11.8697 14.1595 11.286 16.2237Z" fill="black"/>
</g>
<defs>
<clipPath id="clip0_205_2794">
<rect width="20.0983" height="31.5542" fill="white" transform="translate(0.920898 0.445801)"/>
</clipPath>
</defs>
</svg>
