<svg width="35" height="14" viewBox="0 0 35 14" fill="none" xmlns="http://www.w3.org/2000/svg">
<g clip-path="url(#clip0_205_2769)">
<path d="M1.55863 1.64548C1.55863 1.92043 1.55863 2.13906 1.55863 2.35687C1.55945 6.06867 1.5545 9.78047 1.57019 13.4923C1.57184 13.8798 1.46117 14.0049 1.08291 13.9718C0.732725 13.9403 0.377587 13.9651 0.000976562 13.9651V0.0479637C0.124036 0.0371977 0.24214 0.0164938 0.361069 0.0164938C4.88866 0.0131811 9.41542 -0.0124917 13.943 0.0189782C17.3176 0.0421666 19.7169 1.88399 20.7055 5.10635C20.7294 5.1842 20.76 5.26039 20.8145 5.41194C21.0111 5.10469 21.1796 4.84796 21.3423 4.58709C22.2235 3.17177 23.1072 1.75811 23.9777 0.335334C24.1239 0.096825 24.28 -0.0166325 24.5691 0.000758769C25.0018 0.0264316 25.4379 0.00738403 25.9624 0.00738403C25.6237 0.598688 25.3371 1.10966 25.0415 1.61649C23.4384 4.36598 21.8485 7.12374 20.2223 9.85914C19.2593 11.4782 18.0263 12.8413 16.206 13.5105C15.608 13.7308 14.958 13.9047 14.3271 13.9237C12.4993 13.9784 10.6691 13.9428 8.78609 13.9428C8.77618 13.797 8.75801 13.6529 8.75801 13.5088C8.75635 11.0393 8.76379 8.56888 8.74892 6.09931C8.74644 5.73658 8.84803 5.6049 9.21556 5.63554C9.58143 5.66618 9.95226 5.64217 10.3677 5.64217V12.2393C10.5585 12.2492 10.7038 12.2633 10.85 12.2633C11.8824 12.2649 12.9139 12.2608 13.9463 12.2633C16.4959 12.2707 18.7696 10.4198 19.2032 7.97923C19.6863 5.26039 18.3773 2.9167 15.8162 1.99745C15.2694 1.80117 14.6682 1.66287 14.0908 1.65873C10.0728 1.62974 6.05483 1.64382 2.036 1.64382C1.89972 1.64382 1.76262 1.64382 1.55863 1.64382V1.64548Z" fill="black"/>
<path d="M3.7494 3.91943V5.64034H8.12585V7.31322H2.13477V2.26395C2.25452 2.25235 2.36106 2.23248 2.46678 2.23248C6.32043 2.23248 10.1749 2.2068 14.0286 2.24821C15.8678 2.26809 17.3413 3.07223 18.1969 4.75173C19.022 6.37161 18.9666 8.02047 17.9632 9.55173C17.1125 10.8486 15.8819 11.5791 14.3003 11.6064C13.2283 11.6246 12.1554 11.6097 11.0487 11.6097V5.67099H12.67V9.94676C14.5167 10.1372 15.7283 10.0271 16.6797 8.39562C17.8137 6.45028 16.3989 3.93268 14.1302 3.89956C10.7175 3.84987 7.30326 3.88299 3.88981 3.88299C3.85181 3.88299 3.813 3.90287 3.75023 3.92026L3.7494 3.91943Z" fill="black"/>
<path d="M32.0629 11.6025H23.6792V10.0174H29.1062C28.0383 8.27334 27.0191 6.60791 25.962 4.8812C25.397 5.87002 24.8718 6.78762 24.3498 7.70605C23.2191 9.69446 22.086 11.682 20.9652 13.6762C20.8389 13.9015 20.6944 13.9769 20.4416 13.9686C19.8296 13.9495 19.216 13.9628 18.5156 13.9628C21.0115 9.83027 23.4586 5.7781 25.9578 1.64062C28.0003 4.97396 30.008 8.24932 32.0621 11.6025H32.0629Z" fill="black"/>
<path d="M33.135 12.2153C32.5824 11.2521 32.0398 10.284 31.4757 9.32832C29.7199 6.35192 27.9566 3.38049 26.1966 0.406578C26.1354 0.303887 26.0851 0.19457 25.9893 0.0115472C26.5674 0.0115472 27.0836 -0.00501591 27.5973 0.0239696C27.7096 0.0305948 27.8442 0.178835 27.9161 0.295605C29.7314 3.23639 31.5401 6.18132 33.3505 9.12542C33.5958 9.52459 33.8361 9.92625 34.0922 10.318C34.2111 10.4985 34.2384 10.6393 34.1046 10.8364C33.8576 11.2 33.6544 11.5933 33.4158 11.9635C33.3505 12.0654 33.225 12.1275 33.1267 12.2078L33.135 12.2161V12.2153Z" fill="black"/>
<path d="M2.13364 8.06128H8.16107C8.16107 8.5383 8.15859 8.98964 8.16107 9.44099C8.16272 9.73167 7.95211 9.67701 7.78198 9.67784C6.57203 9.68033 5.36126 9.69275 4.15131 9.67122C3.80031 9.66542 3.71028 9.77639 3.71607 10.1143C3.73423 11.272 3.71607 12.4306 3.72845 13.5892C3.73176 13.8783 3.64173 13.9809 3.35184 13.966C2.95706 13.9445 2.5598 13.9611 2.13281 13.9611V8.06128H2.13364Z" fill="black"/>
<path d="M33.126 12.207C33.0624 12.3917 33.0013 12.578 32.9352 12.7619C32.5701 13.7698 31.8805 14.0439 30.8118 13.9942C28.6141 13.8923 26.4089 13.9636 24.2071 13.9636C24.0444 13.9636 23.8817 13.9636 23.6826 13.9636V12.265C23.8305 12.265 23.9874 12.265 24.1451 12.265C26.9391 12.2633 29.7332 12.2633 32.5272 12.2592C32.7304 12.2592 32.9335 12.2319 33.1359 12.2161C33.1351 12.2153 33.1268 12.207 33.1268 12.207H33.126Z" fill="black"/>
</g>
<defs>
<clipPath id="clip0_205_2769">
<rect width="34.1923" height="14" fill="white" transform="translate(0.000976562)"/>
</clipPath>
</defs>
</svg>
