<svg width="86" height="86" viewBox="0 0 86 86" fill="none" xmlns="http://www.w3.org/2000/svg">
<path d="M47.7656 9.42537L50.8292 13.2774C51.1746 13.7205 51.6101 14.0208 52.0907 14.1785C52.5788 14.3362 53.1119 14.3512 53.6526 14.201L58.3907 12.8795C59.3518 12.6091 60.3055 12.5641 61.2366 12.7293C62.1752 12.902 63.0612 13.2774 63.8647 13.8631C64.6756 14.4488 65.3064 15.1697 65.7569 16.0032C66.1999 16.8367 66.4552 17.7678 66.4928 18.7739L66.703 23.6923C66.7256 24.2404 66.9058 24.7435 67.2061 25.1565C67.499 25.5695 67.927 25.8924 68.4451 26.0876L73.0555 27.7996C73.9942 28.1526 74.7976 28.6782 75.4509 29.354C76.1117 30.0373 76.5997 30.8708 76.9076 31.8169C77.2155 32.763 77.3056 33.7241 77.1779 34.6628C77.0503 35.6014 76.7049 36.5024 76.1567 37.3284L73.4385 41.4283C73.1306 41.8938 72.973 42.4044 72.973 42.915C72.973 43.4256 73.1306 43.9362 73.4385 44.4018L76.1567 48.5017C76.7049 49.3276 77.0503 50.2287 77.1779 51.1673C77.3056 52.1059 77.2155 53.0671 76.9076 54.0132C76.5997 54.9593 76.1117 55.7928 75.4509 56.4761C74.7976 57.1519 73.9942 57.6775 73.0555 58.0304L68.4451 59.7425C67.927 59.9377 67.499 60.2606 67.2061 60.6736C66.9058 61.0866 66.7256 61.5897 66.703 62.1378L66.4928 67.0561C66.4552 68.0623 66.1999 68.9934 65.7569 69.8269C65.3064 70.6604 64.6756 71.3813 63.8647 71.9669C63.0612 72.5526 62.1752 72.9281 61.2366 73.1008C60.3055 73.266 59.3518 73.2209 58.3907 72.9506L53.6526 71.629C53.1119 71.4789 52.5788 71.4939 52.0907 71.6516C51.6101 71.8093 51.1746 72.1096 50.8292 72.5526L47.7656 76.4047C47.1499 77.1856 46.399 77.7863 45.543 78.1993C44.687 78.6198 43.7483 78.8301 42.7572 78.8301C41.766 78.8301 40.8274 78.6198 39.9714 78.1993C39.1154 77.7863 38.3645 77.1856 37.7487 76.4047L34.6851 72.5526C34.3397 72.1096 33.9042 71.8093 33.4236 71.6516C32.9355 71.4939 32.4024 71.4789 31.8618 71.629L27.1236 72.9506C26.1625 73.2209 25.2089 73.266 24.2778 73.1008C23.3392 72.9281 22.4531 72.5526 21.6497 71.9669C20.8387 71.3813 20.208 70.6604 19.7574 69.8269C19.3144 68.9934 19.0591 68.0623 19.0216 67.0561L18.8113 62.1378C18.7888 61.5897 18.6086 61.0866 18.3082 60.6736C18.0154 60.2606 17.5874 59.9377 17.0692 59.7425L12.4588 58.0304C11.5202 57.6775 10.7167 57.1519 10.0634 56.4761C9.40266 55.7928 8.91458 54.9593 8.60672 54.0132C8.29885 53.0671 8.20874 52.1059 8.3364 51.1673C8.46405 50.2287 8.80946 49.3276 9.35761 48.5017L12.0758 44.4018C12.3837 43.9362 12.5414 43.4256 12.5414 42.915C12.5414 42.4044 12.3837 41.8938 12.0758 41.4283L9.35761 37.3284C8.80946 36.5024 8.46405 35.6014 8.3364 34.6628C8.20874 33.7241 8.29885 32.763 8.60672 31.8169C8.91458 30.8708 9.40266 30.0373 10.0634 29.354C10.7167 28.6782 11.5202 28.1526 12.4588 27.7996L17.0692 26.0876C17.5874 25.8924 18.0154 25.5695 18.3082 25.1565C18.6086 24.7435 18.7888 24.2404 18.8113 23.6923L19.0216 18.7739C19.0591 17.7678 19.3144 16.8367 19.7574 16.0032C20.208 15.1697 20.8387 14.4488 21.6497 13.8631C22.4531 13.2774 23.3392 12.902 24.2778 12.7293C25.2089 12.5641 26.1625 12.6091 27.1236 12.8795L31.8618 14.201C32.4024 14.3512 32.9355 14.3362 33.4236 14.1785C33.9042 14.0208 34.3397 13.7205 34.6851 13.2774L37.7487 9.42537C38.3645 8.64445 39.1154 8.04374 39.9714 7.63075C40.8274 7.21025 41.766 7 42.7572 7C43.7483 7 44.687 7.21025 45.543 7.63075C46.399 8.04374 47.1499 8.64445 47.7656 9.42537ZM30.0221 44.3643C29.3087 43.6209 29.3313 42.4495 30.0671 41.7361C30.8105 41.0228 31.9894 41.0453 32.6952 41.7887L38.7099 48.0661L52.8416 33.7917C53.5625 33.0634 54.7414 33.0634 55.4697 33.7842C56.1906 34.5051 56.1981 35.684 55.4697 36.4123L39.9789 52.0684C39.2355 52.7817 38.0641 52.7592 37.3508 52.0158L30.0221 44.3643ZM42.7572 21.312C48.7192 21.312 54.1181 23.7298 58.0303 27.6419C61.9424 31.5541 64.3602 36.953 64.3602 42.915C64.3602 48.8771 61.9424 54.276 58.0303 58.1881C54.1181 62.1003 48.7192 64.5181 42.7572 64.5181C36.7951 64.5181 31.3962 62.1003 27.4841 58.1881C23.5719 54.276 21.1541 48.8771 21.1541 42.915C21.1541 36.953 23.5719 31.5541 27.4841 27.6419C31.3962 23.7298 36.7951 21.312 42.7572 21.312ZM55.3946 30.2776C52.1583 27.0412 47.6905 25.0439 42.7572 25.0439C37.8238 25.0439 33.356 27.0412 30.1197 30.2776C26.8834 33.5139 24.886 37.9817 24.886 42.915C24.886 47.8484 26.8834 52.3162 30.1197 55.5525C33.356 58.7888 37.8238 60.7862 42.7572 60.7862C47.6905 60.7862 52.1583 58.7888 55.3946 55.5525C58.631 52.3162 60.6283 47.8484 60.6283 42.915C60.6283 37.9817 58.631 33.5139 55.3946 30.2776ZM47.9158 15.5977L44.8597 11.7381C44.5893 11.4002 44.274 11.1449 43.9286 10.9722C43.5907 10.8145 43.1927 10.7244 42.7572 10.7244C42.3216 10.7244 41.9237 10.8145 41.5858 10.9722C41.2404 11.1449 40.925 11.4002 40.6547 11.7381L37.5986 15.5977C36.7876 16.6189 35.7363 17.3397 34.5725 17.7152C33.4011 18.0981 32.1321 18.1282 30.8706 17.7753L26.1325 16.4612C25.712 16.3411 25.3065 16.3185 24.9311 16.3861C24.5631 16.4537 24.1877 16.6114 23.8348 16.8742C23.4818 17.1295 23.219 17.4299 23.0313 17.7678C22.8511 18.1057 22.746 18.4961 22.7309 18.9166L22.5207 23.8349C22.4681 25.149 22.0401 26.3504 21.3268 27.3416C20.6059 28.3328 19.5922 29.1062 18.3608 29.5642L13.7503 31.2838C13.3523 31.4339 13.0069 31.6517 12.7441 31.9295C12.4813 32.2074 12.2786 32.5528 12.1434 32.9658C12.0082 33.3787 11.9632 33.7842 12.0158 34.1672C12.0683 34.5426 12.2185 34.9181 12.4588 35.2785L15.177 39.3784C15.9054 40.4671 16.2658 41.6911 16.2658 42.915C16.2658 44.139 15.9054 45.3629 15.177 46.4517L12.4588 50.5516C12.2185 50.912 12.0683 51.2875 12.0158 51.6629C11.9632 52.0459 12.0082 52.4513 12.1434 52.8643C12.2786 53.2773 12.4813 53.6227 12.7441 53.9005C13.0069 54.1784 13.3523 54.3961 13.7503 54.5463L18.3608 56.2659C19.5922 56.7239 20.6059 57.4973 21.3268 58.4885C22.0401 59.4797 22.4681 60.6811 22.5207 61.9951L22.7309 66.9135C22.746 67.334 22.8511 67.7244 23.0313 68.0623C23.219 68.4002 23.4818 68.7006 23.8348 68.9559C24.1877 69.2187 24.5631 69.3764 24.9311 69.444C25.3065 69.5115 25.712 69.489 26.1325 69.3689L30.8706 68.0548C32.1321 67.7019 33.4086 67.7319 34.5725 68.1149C35.7363 68.4903 36.7876 69.2112 37.5986 70.2324L40.6547 74.092C40.925 74.4299 41.2404 74.6852 41.5858 74.8579C41.9237 75.0156 42.3216 75.1057 42.7572 75.1057C43.1927 75.1057 43.5907 75.0156 43.9286 74.8579C44.274 74.6852 44.5893 74.4299 44.8597 74.092L47.9158 70.2324C48.7267 69.2112 49.778 68.4903 50.9419 68.1149C52.1132 67.7319 53.3823 67.7019 54.6437 68.0548L59.3819 69.3689C59.8024 69.489 60.2078 69.5115 60.5833 69.444C60.9512 69.3764 61.3267 69.2187 61.6796 68.9559C62.0325 68.7006 62.2953 68.4002 62.483 68.0623C62.6632 67.7244 62.7684 67.334 62.7834 66.9135L62.9936 61.9951C63.0462 60.6811 63.4742 59.4797 64.1875 58.4885C64.9084 57.4973 65.9221 56.7239 67.1536 56.2659L71.764 54.5463C72.162 54.3961 72.5074 54.1784 72.7702 53.9005C73.033 53.6227 73.2358 53.2773 73.3709 52.8643C73.5061 52.4513 73.5511 52.0459 73.4986 51.6629C73.446 51.2875 73.2958 50.912 73.0555 50.5516L70.3373 46.4517C69.609 45.3629 69.2485 44.139 69.2485 42.915C69.2485 41.6911 69.609 40.4671 70.3373 39.3784L73.0555 35.2785C73.2958 34.9181 73.446 34.5426 73.4986 34.1672C73.5511 33.7842 73.5061 33.3787 73.3709 32.9658C73.2358 32.5528 73.033 32.2074 72.7702 31.9295C72.5074 31.6517 72.162 31.4339 71.764 31.2838L67.1536 29.5642C65.9221 29.1062 64.9084 28.3328 64.1875 27.3416C63.4742 26.3504 63.0462 25.149 62.9936 23.8349L62.7834 18.9166C62.7684 18.4961 62.6632 18.1057 62.483 17.7678C62.2953 17.4299 62.0325 17.1295 61.6796 16.8742C61.3267 16.6114 60.9512 16.4537 60.5833 16.3861C60.2078 16.3185 59.8024 16.3411 59.3819 16.4612L54.6437 17.7753C53.3823 18.1282 52.1057 18.0981 50.9419 17.7152C49.778 17.3397 48.7267 16.6189 47.9158 15.5977Z"/>
</svg>
