<svg width="30" height="32" viewBox="0 0 30 32" fill="none" xmlns="http://www.w3.org/2000/svg">
<path d="M14.2 19.2144C13.0564 19.2144 12.0379 19.0179 11.1444 18.6248C10.2561 18.2265 9.55409 17.6803 9.03845 16.9859C8.52791 16.2865 8.26498 15.4798 8.24966 14.566H11.5886C11.609 14.9489 11.7341 15.2858 11.9638 15.5768C12.1987 15.8627 12.5101 16.0848 12.8981 16.2431C13.2861 16.4014 13.7227 16.4805 14.2077 16.4805C14.7131 16.4805 15.1598 16.3911 15.5478 16.2125C15.9358 16.0338 16.2396 15.7861 16.4592 15.4696C16.6787 15.1531 16.7884 14.788 16.7884 14.3745C16.7884 13.9559 16.671 13.5857 16.4362 13.2641C16.2064 12.9373 15.8746 12.6821 15.4406 12.4983C15.0118 12.3145 14.5012 12.2226 13.909 12.2226H12.4463V9.7873H13.909C14.4093 9.7873 14.8509 9.70051 15.2339 9.52693C15.6219 9.35334 15.9231 9.11339 16.1375 8.80706C16.3519 8.49564 16.4592 8.13315 16.4592 7.71961C16.4592 7.3265 16.3647 6.98188 16.1758 6.68577C15.992 6.38455 15.7316 6.1497 15.3947 5.98122C15.0628 5.81275 14.6748 5.72851 14.2306 5.72851C13.7814 5.72851 13.3704 5.81019 12.9977 5.97357C12.625 6.13183 12.3263 6.35902 12.1017 6.65514C11.8771 6.95125 11.7571 7.29842 11.7418 7.69664H8.56365C8.57896 6.79298 8.83679 5.99654 9.33711 5.30731C9.83744 4.61808 10.5114 4.07946 11.3589 3.69145C12.2115 3.29834 13.1738 3.10178 14.246 3.10178C15.3283 3.10178 16.2754 3.29834 17.0871 3.69145C17.8989 4.08457 18.5294 4.61553 18.9787 5.28434C19.433 5.94804 19.6577 6.69343 19.6526 7.5205C19.6577 8.39863 19.3845 9.13126 18.8332 9.71838C18.2869 10.3055 17.5747 10.6782 16.6966 10.8365V10.959C17.8504 11.107 18.7285 11.5078 19.3309 12.1613C19.9385 12.8097 20.2397 13.6215 20.2346 14.5966C20.2397 15.49 19.9819 16.2839 19.4611 16.9783C18.9455 17.6726 18.2333 18.2189 17.3245 18.6171C16.4158 19.0153 15.3743 19.2144 14.2 19.2144Z" fill="#333333"/>
<path d="M2.0109 31.4228C1.80413 31.4228 1.61013 31.4062 1.42888 31.373C1.25019 31.3424 1.10214 31.3028 0.984714 31.2543L1.3523 30.0367C1.54376 30.0954 1.71606 30.1273 1.86922 30.1324C2.02494 30.1375 2.15896 30.1018 2.27128 30.0252C2.38615 29.9486 2.47932 29.8184 2.5508 29.6347L2.64652 29.3858L0.536715 23.3359H2.25213L3.46977 27.655H3.53103L4.76016 23.3359H6.48706L4.20112 29.8529C4.09135 30.1694 3.94202 30.4451 3.75312 30.68C3.56677 30.9174 3.33065 31.0999 3.04474 31.2275C2.75884 31.3577 2.41423 31.4228 2.0109 31.4228ZM9.81259 29.3322C9.2076 29.3322 8.68685 29.2096 8.25034 28.9646C7.81638 28.717 7.48198 28.3672 7.24713 27.9154C7.01228 27.461 6.89486 26.9237 6.89486 26.3034C6.89486 25.6984 7.01228 25.1674 7.24713 24.7105C7.48198 24.2536 7.81255 23.8975 8.23885 23.6422C8.66771 23.3869 9.17059 23.2593 9.7475 23.2593C10.1355 23.2593 10.4967 23.3218 10.8311 23.4469C11.1681 23.5694 11.4616 23.7545 11.7118 24.0021C11.9645 24.2497 12.1611 24.5612 12.3015 24.9364C12.4419 25.3091 12.5121 25.7456 12.5121 26.2459V26.6939H7.54579V25.6831H10.9766C10.9766 25.4482 10.9256 25.2402 10.8235 25.0589C10.7214 24.8777 10.5797 24.736 10.3984 24.6339C10.2197 24.5292 10.0117 24.4769 9.7743 24.4769C9.52669 24.4769 9.30716 24.5344 9.11571 24.6492C8.92681 24.7615 8.77875 24.9134 8.67153 25.1049C8.56432 25.2938 8.50944 25.5044 8.50689 25.7367V26.6978C8.50689 26.9888 8.56049 27.2402 8.66771 27.4521C8.77747 27.664 8.93191 27.8273 9.13102 27.9422C9.33013 28.0571 9.56626 28.1145 9.8394 28.1145C10.0206 28.1145 10.1866 28.089 10.3372 28.0379C10.4878 27.9869 10.6167 27.9103 10.7239 27.8082C10.8311 27.7061 10.9128 27.581 10.969 27.4329L12.4776 27.5325C12.401 27.895 12.244 28.2115 12.0066 28.4821C11.7718 28.7501 11.468 28.9595 11.0953 29.1101C10.7252 29.2581 10.2976 29.3322 9.81259 29.3322ZM15.2537 29.3283C14.8784 29.3283 14.544 29.2632 14.2505 29.133C13.9569 29.0003 13.7246 28.805 13.5536 28.5472C13.3851 28.2868 13.3009 27.9626 13.3009 27.5746C13.3009 27.2479 13.3608 26.9735 13.4808 26.7514C13.6008 26.5293 13.7642 26.3506 13.9709 26.2153C14.1777 26.08 14.4126 25.9779 14.6755 25.909C14.941 25.8401 15.2192 25.7916 15.5102 25.7635C15.8523 25.7277 16.128 25.6946 16.3373 25.6639C16.5466 25.6307 16.6985 25.5822 16.793 25.5184C16.8874 25.4546 16.9346 25.3602 16.9346 25.2351V25.2121C16.9346 24.9696 16.858 24.782 16.7049 24.6492C16.5543 24.5165 16.3398 24.4501 16.0616 24.4501C15.768 24.4501 15.5345 24.5152 15.3609 24.6454C15.1873 24.773 15.0724 24.9339 15.0163 25.1279L13.5076 25.0053C13.5842 24.648 13.7348 24.3391 13.9595 24.0787C14.1841 23.8158 14.4738 23.6141 14.8287 23.4737C15.186 23.3308 15.5996 23.2593 16.0693 23.2593C16.396 23.2593 16.7087 23.2976 17.0074 23.3742C17.3086 23.4507 17.5754 23.5694 17.8077 23.7303C18.0425 23.8911 18.2276 24.0978 18.3629 24.3506C18.4982 24.6007 18.5658 24.9007 18.5658 25.2504V29.2173H17.0189V28.4017H16.9729C16.8785 28.5855 16.7521 28.7476 16.5938 28.888C16.4356 29.0258 16.2454 29.1343 16.0233 29.2135C15.8012 29.29 15.5447 29.3283 15.2537 29.3283ZM15.7208 28.2026C15.9608 28.2026 16.1726 28.1554 16.3564 28.0609C16.5402 27.9639 16.6845 27.8337 16.7891 27.6703C16.8938 27.507 16.9461 27.3219 16.9461 27.1151V26.491C16.8951 26.5242 16.8249 26.5548 16.7355 26.5829C16.6487 26.6084 16.5504 26.6327 16.4407 26.6556C16.3309 26.6761 16.2211 26.6952 16.1114 26.7131C16.0016 26.7284 15.9021 26.7424 15.8127 26.7552C15.6213 26.7833 15.4541 26.828 15.3111 26.8892C15.1682 26.9505 15.0571 27.0334 14.978 27.1381C14.8988 27.2402 14.8593 27.3679 14.8593 27.521C14.8593 27.7431 14.9397 27.9129 15.1005 28.0303C15.2639 28.1452 15.4707 28.2026 15.7208 28.2026ZM19.8313 29.2173V23.3359H21.4127V24.362H21.474C21.5812 23.997 21.7611 23.7213 22.0139 23.535C22.2666 23.3461 22.5576 23.2516 22.8869 23.2516C22.9686 23.2516 23.0566 23.2567 23.1511 23.2669C23.2455 23.2771 23.3285 23.2912 23.4 23.3091V24.7564C23.3234 24.7335 23.2175 24.713 23.0822 24.6952C22.9469 24.6773 22.8231 24.6684 22.7108 24.6684C22.4708 24.6684 22.2564 24.7207 22.0675 24.8254C21.8811 24.9275 21.7331 25.0704 21.6233 25.2542C21.5161 25.438 21.4625 25.6499 21.4625 25.8898V29.2173H19.8313ZM29.1369 25.013L27.6435 25.1049C27.618 24.9772 27.5631 24.8624 27.4789 24.7603C27.3946 24.6556 27.2836 24.5726 27.1458 24.5114C27.0105 24.4476 26.8484 24.4157 26.6595 24.4157C26.4067 24.4157 26.1936 24.4693 26.02 24.5765C25.8464 24.6811 25.7596 24.8215 25.7596 24.9977C25.7596 25.1381 25.8158 25.2568 25.9281 25.3538C26.0404 25.4508 26.2332 25.5286 26.5063 25.5873L27.5708 25.8018C28.1426 25.9192 28.5689 26.1081 28.8497 26.3685C29.1305 26.6288 29.2709 26.9709 29.2709 27.3947C29.2709 27.7801 29.1573 28.1183 28.9301 28.4094C28.7055 28.7004 28.3966 28.9276 28.0035 29.0909C27.6129 29.2517 27.1623 29.3322 26.6518 29.3322C25.8732 29.3322 25.2529 29.1701 24.7909 28.8459C24.3314 28.5191 24.0621 28.075 23.983 27.5134L25.5873 27.4291C25.6358 27.6665 25.7533 27.8478 25.9396 27.9728C26.1259 28.0954 26.3646 28.1566 26.6556 28.1566C26.9415 28.1566 27.1713 28.1018 27.3449 27.992C27.521 27.8797 27.6103 27.7354 27.6129 27.5593C27.6103 27.4112 27.5478 27.29 27.4253 27.1955C27.3027 27.0985 27.1138 27.0245 26.8586 26.9735L25.84 26.7705C25.2657 26.6556 24.8381 26.4565 24.5573 26.1732C24.2791 25.8898 24.1399 25.5286 24.1399 25.0896C24.1399 24.7118 24.2421 24.3863 24.4463 24.1132C24.653 23.84 24.9428 23.6294 25.3155 23.4814C25.6907 23.3333 26.1298 23.2593 26.6327 23.2593C27.3755 23.2593 27.9601 23.4163 28.3864 23.7303C28.8152 24.0442 29.0654 24.4718 29.1369 25.013Z" fill="#333333"/>
</svg>
