<svg width="22" height="22" viewBox="0 0 22 22" fill="none" xmlns="http://www.w3.org/2000/svg">
<path d="M10.3301 7.85156C10.3965 7.78516 10.4961 7.75195 10.5957 7.75195C10.6621 7.75195 10.7617 7.78516 10.8281 7.85156L16.9707 12.8652V18.3105C16.9707 18.6094 16.7051 18.8418 16.4395 18.8418H12.6875C12.4219 18.8418 12.1562 18.6094 12.1562 18.3105V15.123C12.1562 14.8574 11.9238 14.5918 11.625 14.5918H9.5C9.23438 14.5918 8.96875 14.8574 8.96875 15.123V18.3105C8.96875 18.6094 8.73633 18.8418 8.4707 18.8418H4.75195C4.45312 18.8418 4.2207 18.6094 4.2207 18.3105V12.8984L10.3301 7.85156ZM19.9922 11.2715C20.0918 11.3379 20.1582 11.4707 20.1582 11.5703C20.1582 11.6699 20.125 11.7695 20.0586 11.8359L19.1953 12.8652C19.1289 12.9648 19.0293 12.998 18.8965 12.998C18.7969 12.998 18.6973 12.9648 18.6309 12.8984L10.8281 6.49023C10.7617 6.42383 10.6621 6.39062 10.5957 6.39062C10.4961 6.39062 10.3965 6.42383 10.3301 6.49023L2.52734 12.8984C2.46094 12.9648 2.36133 12.998 2.26172 12.998C2.12891 12.998 2.0293 12.9648 1.96289 12.8652L1.09961 11.8359C1.06641 11.7695 1 11.6699 1 11.5703C1 11.4707 1.06641 11.3379 1.16602 11.2715L9.56641 4.33203C9.83203 4.13281 10.1973 4 10.5957 4C10.9609 4 11.3262 4.13281 11.5918 4.33203L14.5801 6.78906V4.39844C14.5801 4.16602 14.7461 4 14.9785 4H16.8379C17.0371 4 17.2363 4.16602 17.2363 4.39844V8.98047L19.9922 11.2715Z" fill="#8F8F8F"/>
</svg>
