<svg width="35" height="29" viewBox="0 0 35 29" fill="none" xmlns="http://www.w3.org/2000/svg">
<path d="M6.61128 16V13.9762L11.3399 9.59784C11.7421 9.20865 12.0794 8.85838 12.3518 8.54703C12.6286 8.23568 12.8383 7.93081 12.981 7.63244C13.1237 7.32973 13.1951 7.00325 13.1951 6.65298C13.1951 6.26379 13.1064 5.92865 12.9291 5.64757C12.7518 5.36217 12.5097 5.14379 12.2026 4.99244C11.8956 4.83676 11.5475 4.75892 11.1583 4.75892C10.7518 4.75892 10.3972 4.84108 10.0945 5.00541C9.79182 5.16973 9.55831 5.40541 9.39398 5.71244C9.22966 6.01946 9.1475 6.38487 9.1475 6.80865H6.48155C6.48155 5.93946 6.67831 5.18487 7.07182 4.54487C7.46534 3.90487 8.01669 3.40973 8.72588 3.05946C9.43506 2.70919 10.2524 2.53406 11.1778 2.53406C12.1291 2.53406 12.9572 2.70271 13.6621 3.04C14.3713 3.37298 14.9226 3.83568 15.3161 4.42811C15.7097 5.02054 15.9064 5.69946 15.9064 6.46487C15.9064 6.96649 15.807 7.46162 15.608 7.95027C15.4134 8.43892 15.0653 8.98162 14.5637 9.57838C14.0621 10.1708 13.3551 10.8822 12.4426 11.7124L10.5032 13.613V13.7038H16.0815V16H6.61128ZM19.8673 14.1838L19.7959 14.8973C19.7397 15.4681 19.6316 16.0368 19.4716 16.6032C19.3159 17.1741 19.1516 17.6908 18.9786 18.1535C18.81 18.6162 18.6737 18.9795 18.57 19.2432H16.7797C16.8446 18.9881 16.9332 18.6314 17.0456 18.173C17.1581 17.7189 17.264 17.2086 17.3635 16.6422C17.4629 16.0757 17.5256 15.4984 17.5516 14.9103L17.584 14.1838H19.8673ZM25.834 16.1816C24.9173 16.1816 24.1 16.013 23.3822 15.6757C22.6686 15.3384 22.1022 14.8735 21.6827 14.2811C21.2632 13.6886 21.0449 13.0097 21.0276 12.2443H23.7519C23.7822 12.7589 23.9984 13.1762 24.4005 13.4962C24.8027 13.8162 25.2805 13.9762 25.834 13.9762C26.2751 13.9762 26.6643 13.8789 27.0016 13.6843C27.3432 13.4854 27.6092 13.2108 27.7994 12.8605C27.994 12.5059 28.0913 12.0995 28.0913 11.6411C28.0913 11.1741 27.9919 10.7632 27.793 10.4087C27.5984 10.0541 27.3281 9.7773 26.9822 9.57838C26.6362 9.37946 26.2405 9.27784 25.7951 9.27352C25.4059 9.27352 25.0276 9.35352 24.66 9.51352C24.2967 9.67352 24.0135 9.89189 23.8103 10.1687L21.313 9.72108L21.9422 2.71568H30.0632V5.0119H24.2578L23.914 8.33946H23.9919C24.2254 8.01081 24.5778 7.73838 25.0492 7.52216C25.5205 7.30595 26.0481 7.19784 26.6319 7.19784C27.4319 7.19784 28.1454 7.38595 28.7724 7.76216C29.3994 8.13838 29.8946 8.65514 30.2578 9.31243C30.6211 9.96541 30.8005 10.7178 30.7962 11.5697C30.8005 12.4649 30.593 13.2605 30.1735 13.9568C29.7584 14.6486 29.1767 15.1935 28.4286 15.5914C27.6849 15.9849 26.82 16.1816 25.834 16.1816Z" fill="#333333"/>
<path d="M1.47168 27.2617V22.8656H2.63367V23.6412H2.68519C2.77678 23.3836 2.92942 23.1804 3.14312 23.0316C3.35682 22.8828 3.61249 22.8084 3.91015 22.8084C4.21161 22.8084 4.46824 22.8837 4.68004 23.0345C4.89183 23.1833 5.03302 23.3856 5.10362 23.6412H5.14941C5.23909 23.3894 5.40127 23.1881 5.63596 23.0373C5.87256 22.8847 6.15208 22.8084 6.47454 22.8084C6.88477 22.8084 7.21772 22.9391 7.47339 23.2005C7.73098 23.46 7.85977 23.8282 7.85977 24.3052V27.2617H6.6434V24.5456C6.6434 24.3014 6.57853 24.1182 6.44878 23.9961C6.31903 23.874 6.15685 23.813 5.96223 23.813C5.7409 23.813 5.56822 23.8836 5.4442 24.0247C5.32018 24.164 5.25817 24.3482 5.25817 24.5771V27.2617H4.07614V24.5199C4.07614 24.3043 4.01413 24.1325 3.89011 24.0047C3.768 23.8769 3.60677 23.813 3.40643 23.813C3.27096 23.813 3.14884 23.8473 3.04008 23.916C2.93323 23.9828 2.84833 24.0772 2.78536 24.1993C2.7224 24.3195 2.69091 24.4607 2.69091 24.6229V27.2617H1.47168ZM9.75587 27.2617L8.07871 21.4003H9.43246L10.4027 25.4729H10.4514L11.5218 21.4003H12.6809L13.7484 25.4815H13.7999L14.7702 21.4003H16.1239L14.4468 27.2617H13.239L12.1228 23.4294H12.077L10.9637 27.2617H9.75587ZM19.0339 21.1255L17.145 28.1432H16.0946L17.9835 21.1255H19.0339ZM21.6076 27.3476C21.1573 27.3476 20.77 27.2522 20.4456 27.0614C20.1232 26.8687 19.8751 26.6015 19.7015 26.26C19.5298 25.9185 19.4439 25.5254 19.4439 25.0808C19.4439 24.6305 19.5307 24.2356 19.7043 23.896C19.8799 23.5544 20.1289 23.2882 20.4513 23.0974C20.7738 22.9047 21.1573 22.8084 21.6019 22.8084C21.9854 22.8084 22.3212 22.878 22.6093 23.0173C22.8974 23.1566 23.1254 23.3522 23.2933 23.604C23.4613 23.8559 23.5538 24.1516 23.571 24.4913H22.4204C22.388 24.2718 22.3021 24.0953 22.1628 23.9618C22.0255 23.8263 21.8452 23.7586 21.6219 23.7586C21.433 23.7586 21.268 23.8101 21.1268 23.9131C20.9875 24.0143 20.8787 24.1621 20.8005 24.3567C20.7223 24.5514 20.6832 24.787 20.6832 25.0637C20.6832 25.3441 20.7213 25.5827 20.7976 25.7792C20.8759 25.9757 20.9856 26.1255 21.1268 26.2285C21.268 26.3316 21.433 26.3831 21.6219 26.3831C21.7612 26.3831 21.8862 26.3545 21.9968 26.2972C22.1094 26.24 22.202 26.157 22.2745 26.0482C22.3489 25.9375 22.3975 25.8049 22.4204 25.6504H23.571C23.5519 25.9862 23.4603 26.2819 23.2962 26.5376C23.134 26.7914 22.9098 26.9898 22.6236 27.1329C22.3374 27.276 21.9987 27.3476 21.6076 27.3476ZM24.3516 27.2617V22.8656H25.5136V23.6412H25.5651C25.6567 23.3836 25.8093 23.1804 26.023 23.0316C26.2367 22.8828 26.4924 22.8084 26.7901 22.8084C27.0915 22.8084 27.3481 22.8837 27.5599 23.0345C27.7717 23.1833 27.9129 23.3856 27.9835 23.6412H28.0293C28.119 23.3894 28.2812 23.1881 28.5159 23.0373C28.7525 22.8847 29.032 22.8084 29.3544 22.8084C29.7647 22.8084 30.0976 22.9391 30.3533 23.2005C30.6109 23.46 30.7397 23.8282 30.7397 24.3052V27.2617H29.5233V24.5456C29.5233 24.3014 29.4584 24.1182 29.3287 23.9961C29.1989 23.874 29.0368 23.813 28.8421 23.813C28.6208 23.813 28.4481 23.8836 28.3241 24.0247C28.2001 24.164 28.1381 24.3482 28.1381 24.5771V27.2617H26.956V24.5199C26.956 24.3043 26.894 24.1325 26.77 24.0047C26.6479 23.8769 26.4867 23.813 26.2863 23.813C26.1509 23.813 26.0287 23.8473 25.92 23.916C25.8131 23.9828 25.7282 24.0772 25.6653 24.1993C25.6023 24.3195 25.5708 24.4607 25.5708 24.6229V27.2617H24.3516ZM31.5682 24.331V23.6985L32.962 22.5851C33.0689 22.4974 33.1614 22.4182 33.2397 22.3476C33.3179 22.277 33.379 22.2054 33.4228 22.1329C33.4667 22.0604 33.4887 21.9803 33.4887 21.8925C33.4887 21.7551 33.4324 21.6492 33.3198 21.5748C33.2072 21.5004 33.0708 21.4632 32.9105 21.4632C32.7388 21.4632 32.6005 21.5052 32.4955 21.5891C32.3925 21.6712 32.341 21.7904 32.341 21.9469H31.4967C31.4967 21.5806 31.6302 21.2934 31.8974 21.0854C32.1645 20.8755 32.506 20.7706 32.922 20.7706C33.2063 20.7706 33.4534 20.8202 33.6633 20.9194C33.8731 21.0167 34.0353 21.1493 34.1498 21.3173C34.2662 21.4852 34.3244 21.6731 34.3244 21.8811C34.3244 22.049 34.2891 22.2054 34.2185 22.3504C34.1498 22.4936 34.0429 22.6347 33.8979 22.774C33.7548 22.9114 33.5698 23.0555 33.3427 23.2062L32.8333 23.584V23.6155H34.3645V24.331H31.5682Z" fill="#333333"/>
</svg>
