<svg width="29" height="14" viewBox="0 0 29 14" fill="none" xmlns="http://www.w3.org/2000/svg">
<path d="M5.05704 0.467329C5.69293 0.467329 6.30467 0.573981 6.89227 0.787286C7.48389 1.00059 8.01111 1.34067 8.47394 1.80753C8.9408 2.27438 9.30905 2.89418 9.5787 3.6669C9.85238 4.43561 9.99123 5.37938 9.99525 6.49822C9.99525 7.54865 9.87652 8.48639 9.63907 9.31143C9.40564 10.1325 9.06959 10.8307 8.6309 11.4062C8.19222 11.9818 7.66298 12.4205 7.04319 12.7223C6.4234 13.0201 5.73116 13.169 4.96649 13.169C4.14144 13.169 3.41298 13.0101 2.78112 12.6921C2.14925 12.3701 1.64014 11.9335 1.25377 11.3821C0.871434 10.8267 0.640018 10.2029 0.559526 9.51065H3.1373C3.23791 9.96141 3.4492 10.3116 3.77117 10.5611C4.09314 10.8066 4.49158 10.9293 4.96649 10.9293C5.77141 10.9293 6.38315 10.5792 6.80171 9.87891C7.22027 9.1746 7.43157 8.2107 7.43559 6.98722H7.35107C7.16594 7.34943 6.91642 7.66134 6.6025 7.92294C6.28857 8.18052 5.92837 8.37973 5.52188 8.5206C5.11942 8.66146 4.6908 8.73189 4.23602 8.73189C3.50756 8.73189 2.85758 8.56084 2.28609 8.21875C1.71459 7.87666 1.26383 7.40578 0.933816 6.80611C0.603797 6.20644 0.438787 5.52225 0.438787 4.75355C0.434763 3.92448 0.625932 3.18596 1.0123 2.538C1.39866 1.89003 1.93796 1.38293 2.63019 1.01669C3.32645 0.646425 4.1354 0.463304 5.05704 0.467329ZM5.07515 2.51989C4.66866 2.51989 4.30645 2.61648 3.9885 2.80966C3.67458 3.00284 3.42506 3.26243 3.23992 3.58842C3.05882 3.91442 2.97027 4.27865 2.9743 4.68111C2.9743 5.08759 3.06284 5.45383 3.23992 5.77983C3.42103 6.1018 3.66653 6.35937 3.97643 6.55256C4.29035 6.74171 4.64854 6.83629 5.051 6.83629C5.35285 6.83629 5.63256 6.77995 5.89014 6.66726C6.14771 6.55457 6.37108 6.39962 6.56024 6.20241C6.75342 6.00118 6.90434 5.76977 7.01301 5.50817C7.12167 5.24657 7.176 4.96887 7.176 4.67507C7.17198 4.28468 7.07941 3.92649 6.8983 3.6005C6.7172 3.2745 6.46767 3.0129 6.14973 2.8157C5.83178 2.61849 5.47359 2.51989 5.07515 2.51989ZM14.6618 13L11.1242 0.636363H13.9796L16.0261 9.22692H16.1288L18.3866 0.636363H20.8315L23.0833 9.24503H23.192L25.2385 0.636363H28.094L24.5563 13H22.0087L19.6543 4.91655H19.5578L17.2094 13H14.6618Z" fill="#333333"/>
</svg>
