<svg width="204" height="30" viewBox="0 0 204 30" fill="none" xmlns="http://www.w3.org/2000/svg">
<path d="M61.9385 6.49352H71.2002V29.6731H77.3915V6.49352H86.7287V0.302246H61.9385V6.49352Z" fill="#333333"/>
<path d="M115.345 3.34775C114.439 2.41654 113.332 1.68668 112.073 1.15815C110.815 0.629629 109.481 0.352783 108.072 0.352783H88.5918V29.6984H94.6824V20.789H101.83L109.305 29.7739H117.359L109.682 20.6884C110.538 20.5625 111.343 20.336 112.124 20.0088C113.357 19.4803 114.439 18.7504 115.37 17.8192C116.302 16.888 117.057 15.7806 117.56 14.5474C118.088 13.3142 118.365 11.9803 118.365 10.5457C118.365 9.16151 118.088 7.82761 117.535 6.59439C116.981 5.36117 116.251 4.25379 115.345 3.34775ZM111.847 12.1061C111.62 12.5843 111.343 13.0373 110.966 13.4149C110.614 13.7924 110.161 14.0692 109.657 14.2957C109.154 14.5222 108.625 14.6229 108.046 14.6229H94.6824V6.51889H108.046C108.625 6.51889 109.154 6.61956 109.657 6.84607C110.161 7.04741 110.614 7.34943 110.966 7.70178C111.343 8.07929 111.62 8.50714 111.847 8.98533C112.048 9.46352 112.149 9.96688 112.149 10.5457C112.149 11.0994 112.048 11.628 111.847 12.1061Z" fill="#333333"/>
<path d="M127.022 22.7016C126.494 22.1731 126.217 21.5439 126.217 20.7637V18.1462H148.062V11.955H126.217V8.78383C126.318 8.1043 126.645 7.57578 127.148 7.12276C127.651 6.66974 128.23 6.4684 128.935 6.4684H148.314V0.251953H128.935C127.752 0.251953 126.62 0.478463 125.562 0.906316C124.505 1.33417 123.574 1.93819 122.794 2.69323C122.014 3.47343 121.359 4.3543 120.881 5.33585C120.378 6.34256 120.101 7.44994 120.051 8.63283C120.051 9.21169 120.051 9.81571 120.051 10.3946C120.051 11.7033 120.051 13.012 120.051 14.3207C120.051 15.705 120.051 17.064 120.051 18.4483C120.051 19.9332 119.975 21.4181 120.328 22.8526C120.73 24.4382 121.536 25.8979 122.693 27.0556C123.474 27.8358 124.43 28.4902 125.512 28.9432C126.594 29.3962 127.777 29.6479 128.985 29.6479H148.364V23.4818H128.985C128.205 23.4818 127.576 23.2301 127.022 22.7016Z" fill="#333333"/>
<path d="M175.218 4.55546C173.91 3.24673 172.324 2.18968 170.562 1.40948C166.988 -0.125752 162.66 -0.125752 159.086 1.40948C157.299 2.16452 155.738 3.22156 154.43 4.55546C153.096 5.86418 152.039 7.44975 151.284 9.2115C150.529 10.9984 150.126 12.9363 150.126 14.9498V29.7484H156.317V21.4179H173.356V29.7484H179.547V14.9498C179.547 12.9363 179.17 10.9984 178.389 9.2115C177.584 7.44975 176.527 5.86418 175.218 4.55546ZM173.331 15.2266H156.292V14.8994C156.292 13.7417 156.519 12.6343 156.972 11.6276C157.425 10.5957 158.029 9.68968 158.809 8.93465C159.564 8.17962 160.495 7.55042 161.502 7.12257C163.54 6.2417 166.057 6.2417 168.121 7.12257C169.153 7.57559 170.084 8.17962 170.839 8.93465C171.594 9.68968 172.223 10.5957 172.676 11.6276C173.129 12.6343 173.356 13.7417 173.356 14.8994V15.2266H173.331Z" fill="#333333"/>
<path d="M179.195 0.302246V6.49352H188.457V29.6731H194.648V6.49352H203.986V0.302246H179.195Z" fill="#333333"/>
<path d="M22.8018 0V1.25839C23.2296 1.71141 23.6323 2.1896 23.9846 2.69295C24.3622 3.19631 24.6893 3.75 24.9662 4.30369C25.5702 5.51174 26.1742 6.7198 26.7783 7.92785C26.5518 7.14765 26.6021 6.29195 26.9041 5.51174C27.3823 4.22819 28.087 3.07047 28.9427 2.01342C29.295 1.5604 29.6977 1.15772 30.1256 0.755034V0H22.8018Z"/>
<path d="M21.9463 27.1812C21.2416 26.1997 20.7131 25.1678 20.2349 24.1862L20.0587 23.8339C19.9581 23.6577 19.8826 23.5067 19.807 23.3305C19.6309 22.9782 19.4295 22.6258 19.2534 22.2735C18.0453 22.9782 16.6107 23.3809 15.0503 23.3809C10.7718 23.3809 7.29866 20.3356 7.29866 16.5856V0H0V16.5856C0 23.9849 6.74497 30 15.0503 30C17.8188 30 20.4362 29.3205 22.6762 28.1376C22.3993 27.8356 22.1728 27.5084 21.9463 27.1812Z"/>
<path d="M44.2956 0.0503356C42.7604 0.0503356 41.2252 0.0503356 39.6899 0.0503356C35.4366 0.0503356 31.4097 2.76846 29.9752 6.56879C29.8997 6.77013 29.8745 7.04698 29.9752 7.22315C31.0825 9.43792 32.1899 11.6527 33.3225 13.8926C33.3476 13.943 33.4231 13.9933 33.5993 14.1443C33.9768 13.4144 34.3292 12.7601 34.6815 12.0805C35.3611 10.7466 35.9903 9.38758 36.695 8.05369C37.3493 6.7953 38.4819 6.04027 39.9668 5.96476C40.5708 5.9396 41.2 5.91443 41.804 5.91443C42.6346 5.91443 43.4903 5.9396 44.3208 5.9396C44.4466 5.9396 44.5725 6.0151 44.8242 6.0906C44.4215 6.94631 44.0691 7.75168 43.6664 8.53188C41.5272 12.7852 39.3627 17.0134 37.1983 21.2668C36.4685 22.7265 35.2352 23.5319 33.549 23.5319H33.5238C31.8124 23.5319 30.554 22.7013 29.799 21.2416C27.1815 16.057 24.5641 10.8473 21.9466 5.63758C20.3107 2.2651 16.5356 0 12.5591 0C12.3829 0 12.2067 0 12.0305 0.0251678C11.955 0.0251678 11.8795 0.0755034 11.7285 0.125839C12.4332 1.53523 13.1379 2.94463 13.8426 4.35403C16.9131 10.3943 19.9835 16.4346 23.0289 22.5C23.8091 24.0856 24.5641 25.6711 25.9231 26.9044C28.1379 28.9178 30.6547 29.9245 33.398 29.9245C34.4299 29.9245 35.4869 29.7735 36.5943 29.4966C39.6144 28.7416 41.8292 26.9547 43.1631 24.3121C46.6614 17.4664 50.0842 10.5956 53.5322 3.72483C54.1111 2.56711 54.6899 1.4094 55.3191 0.125839C54.8913 0.100671 54.6144 0.0755033 54.3627 0.0755033C51.0154 0.0503356 47.6681 0.0503356 44.2956 0.0503356Z"/>
</svg>
