<svg width="36" height="14" viewBox="0 0 36 14" fill="none" xmlns="http://www.w3.org/2000/svg">
<path d="M8.03258 0.636363H10.6466V8.66548C10.6466 9.567 10.4313 10.3558 10.0006 11.032C9.57401 11.7081 8.97636 12.2353 8.20765 12.6136C7.43895 12.9879 6.54347 13.1751 5.52122 13.1751C4.49494 13.1751 3.59745 12.9879 2.82875 12.6136C2.06004 12.2353 1.46239 11.7081 1.03578 11.032C0.609168 10.3558 0.395863 9.567 0.395863 8.66548V0.636363H3.00985V8.44212C3.00985 8.913 3.11248 9.33156 3.31774 9.6978C3.52702 10.064 3.82082 10.3518 4.19913 10.5611C4.57744 10.7704 5.01814 10.875 5.52122 10.875C6.02832 10.875 6.46902 10.7704 6.84331 10.5611C7.22162 10.3518 7.51341 10.064 7.71866 9.6978C7.92794 9.33156 8.03258 8.913 8.03258 8.44212V0.636363ZM15.0309 0.636363L18.0192 10.0298H18.1339L21.1282 0.636363H24.0259L19.7638 13H16.3952L12.1271 0.636363H15.0309ZM25.514 13V0.636363H30.4643C31.3739 0.636363 32.1325 0.771188 32.7402 1.04084C33.348 1.31049 33.8047 1.68478 34.1106 2.16371C34.4165 2.63861 34.5694 3.18596 34.5694 3.80575C34.5694 4.28871 34.4728 4.7133 34.2797 5.07955C34.0865 5.44176 33.8208 5.73958 33.4828 5.97301C33.1487 6.20241 32.7664 6.36541 32.3358 6.462V6.58274C32.8066 6.60286 33.2473 6.73568 33.6578 6.98118C34.0724 7.22668 34.4084 7.57079 34.666 8.01349C34.9236 8.45218 35.0524 8.97538 35.0524 9.5831C35.0524 10.2391 34.8894 10.8247 34.5634 11.3398C34.2414 11.851 33.7645 12.2554 33.1326 12.5533C32.5008 12.8511 31.722 13 30.7963 13H25.514ZM28.128 10.8629H30.2591C30.9875 10.8629 31.5188 10.7241 31.8528 10.4464C32.1868 10.1647 32.3539 9.79036 32.3539 9.32351C32.3539 8.98142 32.2714 8.67957 32.1064 8.41797C31.9413 8.15637 31.7059 7.95111 31.4 7.8022C31.0982 7.65329 30.738 7.57883 30.3194 7.57883H28.128V10.8629ZM28.128 5.81001H30.0659C30.4241 5.81001 30.742 5.74763 31.0197 5.62287C31.3014 5.49408 31.5228 5.31297 31.6838 5.07955C31.8488 4.84612 31.9313 4.56641 31.9313 4.24041C31.9313 3.79368 31.7723 3.43348 31.4544 3.1598C31.1404 2.88613 30.6937 2.74929 30.1142 2.74929H28.128V5.81001Z" fill="#333333"/>
</svg>
