<svg width="254" height="30" viewBox="0 0 254 30" fill="none" xmlns="http://www.w3.org/2000/svg">
<path d="M104.162 22.8336H99.6979V0H104.162V22.8336Z" fill="#00268B"/>
<path d="M46.9651 2.84698C46.9651 1.4039 48.2126 0.191677 49.6853 0.191677C51.1577 0.191677 52.4052 1.4039 52.4052 2.84698C52.4052 4.2848 51.1577 5.50263 49.6853 5.50263C48.2126 5.50263 46.9651 4.2848 46.9651 2.84698Z" fill="#00268B"/>
<path d="M51.9142 22.8337H47.456V7.32359H51.9142V22.8337Z" fill="#00268B"/>
<path d="M36.6372 17.889L40.1829 7.32359H45.132L39.2589 22.8337H34.0093L28.1362 7.32359H33.0853L36.6372 17.889Z" fill="#00268B"/>
<path d="M62.4762 13.2205L62.4632 13.2172C61.0717 12.8581 59.9756 12.5752 59.9756 11.7659C59.9756 11.0722 60.5704 10.661 61.5637 10.661C62.5341 10.661 63.2787 11.095 63.8332 11.9915L67.6215 9.99578C66.3281 8.01097 64.1337 6.8777 61.5637 6.8777C58.4856 6.8777 55.3844 8.42814 55.3844 11.8901C55.3844 15.2558 58.5548 16.1182 60.8765 16.7498C62.2914 17.1333 63.412 17.4379 63.412 18.2325C63.412 18.6781 63.1518 19.4335 61.4311 19.4335C60.0392 19.4335 59.0459 18.8132 58.5434 17.6463L54.703 19.783C55.916 22.0664 58.2376 23.2786 61.4311 23.2786C64.6074 23.2786 68.0028 21.9594 68.0028 18.261C68.0028 14.6359 64.8093 13.818 62.4762 13.2205Z" fill="#00268B"/>
<path d="M70.3971 2.84698C70.3971 1.4039 71.6445 0.191677 73.1173 0.191677C74.5897 0.191677 75.8371 1.4039 75.8371 2.84698C75.8371 4.2848 74.5897 5.50263 73.1173 5.50263C71.6445 5.50263 70.3971 4.2848 70.3971 2.84698Z" fill="#00268B"/>
<path d="M75.3462 22.8337H70.888V7.32359H75.3462V22.8337Z" fill="#00268B"/>
<path fill-rule="evenodd" clip-rule="evenodd" d="M89.1709 6.87805C87.1558 6.87805 85.5734 7.50924 84.4701 8.74988L84.0892 9.17828V0.952386H79.631V22.8334H84.0892V20.9784L84.4701 21.4068C85.5734 22.6471 87.1558 23.2786 89.1709 23.2786C93.4214 23.2786 96.7536 19.676 96.7536 15.0755C96.7536 10.4807 93.4214 6.87805 89.1709 6.87805ZM88.1894 19.1743C85.7409 19.1743 84.0892 17.528 84.0892 15.0755C84.0892 12.6286 85.7409 10.9824 88.1894 10.9824C90.6437 10.9824 92.2896 12.6286 92.2896 15.0755C92.2896 17.528 90.6437 19.1743 88.1894 19.1743Z" fill="#00268B"/>
<path fill-rule="evenodd" clip-rule="evenodd" d="M123.902 15.0755C123.902 10.4014 120.437 6.87805 115.834 6.87805C110.932 6.87805 107.368 10.328 107.368 15.0755C107.368 19.9072 110.995 23.2786 116.192 23.2786C119.138 23.2786 121.425 22.2639 122.984 20.2735L119.427 18.2722C118.676 18.9995 117.503 19.4335 116.256 19.4335C114.114 19.4335 112.728 18.6329 112.139 17.06L112.029 16.7782H123.746C123.85 16.2369 123.902 15.6674 123.902 15.0755ZM111.96 13.6321L112.035 13.3672C112.52 11.642 113.86 10.6947 115.8 10.6947C117.654 10.6947 118.988 11.6645 119.467 13.3672L119.542 13.6321H111.96Z" fill="#00268B"/>
<path d="M148.774 8.89123C149.733 7.55481 151.263 6.87835 153.325 6.87835C156.963 6.87835 159.308 9.38734 159.308 13.2605V22.8337H154.849V13.6776C154.849 11.8848 153.914 10.8532 152.285 10.8532C150.553 10.8532 149.519 12.0539 149.519 14.0611V22.8337H145.061V13.6776C145.061 11.8848 144.125 10.8532 142.491 10.8532C140.764 10.8532 139.731 12.0539 139.731 14.0611V22.8337H135.272V7.32394H139.731V9.26875L140.129 8.69931C140.937 7.52674 142.427 6.87835 144.321 6.87835C146.1 6.87835 147.521 7.572 148.416 8.88562L148.59 9.1449L148.774 8.89123Z" fill="#00268B"/>
<path fill-rule="evenodd" clip-rule="evenodd" d="M174.952 7.32329V9.17828L174.571 8.74988C173.468 7.50924 171.885 6.87805 169.87 6.87805C165.62 6.87805 162.288 10.4807 162.288 15.0755C162.288 19.676 165.62 23.2786 169.87 23.2786C171.885 23.2786 173.468 22.6471 174.571 21.4068L174.952 20.9784V22.8334H179.41V7.32329H174.952ZM170.852 19.1743C168.398 19.1743 166.752 17.528 166.752 15.0755C166.752 12.6286 168.398 10.9824 170.852 10.9824C173.3 10.9824 174.952 12.6286 174.952 15.0755C174.952 17.528 173.3 19.1743 170.852 19.1743Z" fill="#00268B"/>
<path fill-rule="evenodd" clip-rule="evenodd" d="M195.412 9.33627V7.32339H199.743V22.2472C199.743 27.7101 195.216 29.6496 191.341 29.6496C187.957 29.6496 185.323 28.3812 183.909 26.081L187.708 23.9383C188.268 24.8744 189.239 25.8666 191.508 25.8666C193.986 25.8666 195.412 24.5474 195.412 22.2472V20.1838L195.025 20.6459C193.934 21.9711 192.392 22.6419 190.428 22.6419C186.051 22.6419 182.62 19.18 182.62 14.7598C182.62 10.3397 186.051 6.87815 190.428 6.87815C192.392 6.87815 193.934 7.54899 195.025 8.87383L195.412 9.33627ZM187.079 14.7598C187.079 17.0601 188.794 18.667 191.248 18.667C193.697 18.667 195.412 17.0601 195.412 14.7598C195.412 12.4596 193.697 10.853 191.248 10.853C188.794 10.853 187.079 12.4596 187.079 14.7598Z" fill="#00268B"/>
<path d="M205.995 0.191677C204.516 0.191677 203.275 1.4039 203.275 2.84698C203.275 4.2848 204.516 5.50263 205.995 5.50263C207.467 5.50263 208.714 4.2848 208.714 2.84698C208.714 1.4039 207.467 0.191677 205.995 0.191677Z" fill="#00268B"/>
<path d="M203.76 22.8337H208.223V7.32359H203.76V22.8337Z" fill="#00268B"/>
<path d="M215.894 15.0761C215.894 17.3427 217.533 18.9833 219.797 18.9833C221.229 18.9833 222.454 18.3405 223.054 17.2862L226.941 19.457C225.514 21.8193 222.823 23.2796 219.861 23.2796C215.056 23.2796 211.429 19.7503 211.429 15.0761C211.429 10.4023 215.056 6.87866 219.861 6.87866C222.818 6.87866 225.509 8.32771 226.941 10.6672L223.049 12.8717C222.419 11.8061 221.218 11.1693 219.797 11.1693C217.533 11.1693 215.894 12.8152 215.894 15.0761Z" fill="#00268B"/>
<path fill-rule="evenodd" clip-rule="evenodd" d="M23.9763 8.0803V1.7002L0 10.3611V16.0709L6.10133 14.0369L23.9763 8.0803ZM23.9744 26.5181V20.1788L8.62357 15.0987L0.16983 17.9161L23.9744 26.5181Z" fill="#75D400"/>
<path fill-rule="evenodd" clip-rule="evenodd" d="M245.379 13.1986L253.974 10.3539L230.024 1.70215V8.08225L245.379 13.1986ZM254 17.8559V12.2458L247.899 14.2637L230.024 20.1796V26.5189L254 17.8559Z" fill="#70B023"/>
</svg>
